<?xml version="1.0" encoding="UTF-8"?>
<svg width="180px" height="33px" viewBox="0 0 180 33" version="1.1" xmlns="http://www.w3.org/2000/svg" xmlns:xlink="http://www.w3.org/1999/xlink">
    <!-- Generator: Sketch 64 (93537) - https://sketch.com -->
    <title>CASIO_Logo</title>
    <desc>Created with Sketch.</desc>
    <g id="Symboles" stroke="none" stroke-width="1" fill="none" fill-rule="evenodd">
        <g id="Structure/header" transform="translate(-90.000000, -49.000000)" fill="#092981">
            <g id="CASIO_Logo" transform="translate(90.000000, 49.000000)">
                <path d="M111.256803,2.88162744 C113.370724,4.79374661 114.570516,8.05559697 114.513383,10.5863429 L104.85791,10.5863429 C104.800777,9.01165656 104.115181,8.05559697 102.801123,7.88688057 C98.7446812,7.43697018 96.3450961,7.49320898 92.1172557,7.88688057 C90.9174632,7.99935817 89.9462026,8.56174616 89.8319366,10.3613877 C89.6605377,13.0608501 92.2315217,13.0046113 99.9444737,13.1170889 C101.772729,13.1733277 107.943091,13.1170889 110.971138,14.1856261 C112.456596,14.7480141 115.941708,16.3227005 115.99884,22.8464012 C116.055973,26.6144007 113.999186,30.6073555 110.399809,31.5071762 C107.200362,32.3507582 101.772729,32.5757134 98.1162184,32.5757134 C95.2024365,32.5757134 90.5175323,32.969385 85.4326973,31.6758926 C83.0331122,31.0572659 81.7190538,29.3138631 80.7477931,27.4017439 C79.8907985,25.7145799 80.0050644,22.621446 80.0050644,22.621446 L90.0604685,22.621446 C90.0033355,24.0274159 90.6317983,24.9834755 92.1743887,25.2084307 C96.0594312,25.7708187 97.7162876,25.5458635 103.658117,25.2084307 C104.000915,25.2084307 105.772037,24.5898039 105.82917,22.90264 C105.886303,21.215476 105.257841,20.5968492 103.658117,20.4281328 C96.3450961,19.6407896 90.0033355,20.2594164 86.6324899,19.3033568 C84.0615058,18.5722524 79.7193995,16.6038945 80.1193304,10.7550593 C80.3478623,7.66192537 80.6335272,5.524851 82.8617133,3.33153783 C85.4326973,0.800791869 91.2602611,0.632075472 97.5448886,0.632075472 C105.372107,0.688314271 109.257149,1.08198587 111.256803,2.88162744 L111.256803,2.88162744 Z" id="Path" fill-rule="nonzero"></path>
                <polygon id="Path" fill-rule="nonzero" points="120 0.632075472 130 0.632075472 130 31.6320755 120 31.6320755"></polygon>
                <path d="M34.1494603,2.27093151 C36.7267426,3.85306215 39.189479,7.63887477 38.6167496,12.4417714 L28.2503474,12.4417714 C28.1930745,10.8031361 28.0785286,9.95556607 26.2457945,9.27751008 C24.6421522,8.65595876 14.7912064,8.88197742 12.5575618,9.22100542 C10.8393735,9.44702408 10.8393735,10.2380894 10.438463,11.8202201 C10.2666441,12.4417714 9.98027944,19.3918453 10.438463,21.4825179 C10.7248277,22.8386299 11.1830112,23.9122186 12.5575618,24.0817326 C14.0466582,24.2512466 25.5585192,24.7597886 27.0476157,23.7992092 C28.7085309,22.7256206 28.1358015,21.6520319 28.3648933,20.4089293 C31.6867238,20.3524246 35.2949191,20.4089293 38.9031143,20.4089293 C39.3612979,23.5731906 38.215839,28.6586105 35.0085544,30.5797691 C31.0567215,32.9529651 25.9021569,32.5009278 19.6021334,32.6139371 C13.9321123,32.7269464 6.02844655,32.3879185 2.99298071,29.3931712 C-0.271576892,26.1724052 0.0147878096,19.7873779 0.0147878096,17.0186493 C-0.0424851308,11.6507061 -0.0997580711,7.01732344 3.27934541,3.57053882 C6.25753831,0.575791527 12.0421053,0.688800859 19.3730417,0.632075472 C25.3867004,0.632075472 31.4003591,0.575791527 34.1494603,2.27093151 L34.1494603,2.27093151 Z" id="Path" fill-rule="nonzero"></path>
                <path d="M66.247191,0.632075472 L79,31.6320755 L68.4382022,31.6320755 L66.247191,26.3797734 L51.6404494,26.3797734 L49.4494382,31.6320755 L39,31.6320755 L52.2022472,0.632075472 L66.247191,0.632075472 L66.247191,0.632075472 Z M59.9550562,7.7683554 C59.9550562,7.7683554 62.988764,15.8751694 64.2247191,19.7002154 L53.9438202,19.7002154 L58.5505618,7.7683554 L59.9550562,7.7683554 L59.9550562,7.7683554 Z" id="Shape"></path>
                <path d="M145.100475,0.822761854 C148.158526,0.653262848 148.894724,0.596763179 152.972125,0.653262848 C157.898986,0.709762517 157.559202,0.54026351 160.447362,0.822761854 C169.394993,1.67025689 172,5.51223438 172,13.1961894 L172,20.5411463 C172,28.8465977 169.225102,31.8410801 158.918336,32.4060768 C156.596482,32.5190761 156.539852,32.6320755 153.028756,32.6320755 C149.234507,32.6320755 149.51766,32.5190761 147.252437,32.4060768 C137.058933,31.8410801 134.000881,28.8465977 134.000881,20.5411463 L134.000881,13.3656884 C133.944251,6.13373074 136.605888,1.27475921 145.100475,0.822761854 L145.100475,0.822761854 Z M147.762112,9.12821319 C152.009406,8.78921518 153.708323,8.78921518 158.125508,9.12821319 C160.164209,9.2977122 161.636604,9.41071153 161.806496,12.8006917 C161.919757,15.7951741 161.976387,17.4336645 161.806496,20.5411463 C161.636604,23.4226294 160.164209,24.0441258 158.125508,24.2136248 C154.217998,24.4961231 151.612991,24.4961231 147.762112,24.2136248 C145.723411,24.0441258 144.477539,23.6486281 144.081124,20.5411463 C143.68471,17.5466639 143.797972,15.5126758 144.081124,12.8006917 C144.477539,9.4672112 145.723411,9.24121253 147.762112,9.12821319 L147.762112,9.12821319 Z" id="Shape"></path>
                <path d="M174,28.6320755 C174,30.3301887 175.358491,31.6320755 177,31.6320755 C178.641509,31.6320755 180,30.3301887 180,28.6320755 C180,26.9339623 178.641509,25.6320755 177,25.6320755 C175.415094,25.6886792 174,26.990566 174,28.6320755 L174,28.6320755 Z M174.566038,28.6320755 C174.566038,27.2169811 175.641509,26.0849057 177.056604,26.0849057 C178.415094,26.0849057 179.490566,27.2169811 179.490566,28.6320755 C179.490566,30.1037736 178.415094,31.1792453 177.056604,31.1792453 C175.641509,31.2358491 174.566038,30.1037736 174.566038,28.6320755 L174.566038,28.6320755 Z M175.867925,30.4433962 L176.433962,30.4433962 L176.433962,28.9150943 L177,28.9150943 L177.962264,30.4433962 L178.528302,30.4433962 L177.509434,28.9150943 C178.018868,28.8584906 178.415094,28.5754717 178.415094,27.9528302 C178.415094,27.2735849 178.018868,26.9339623 177.169811,26.9339623 L175.867925,26.9339623 L175.867925,30.4433962 L175.867925,30.4433962 Z M176.433962,27.3301887 L177.169811,27.3301887 C177.566038,27.3301887 177.962264,27.3867925 177.962264,27.8396226 C177.962264,28.4056604 177.509434,28.4056604 177.056604,28.4056604 L176.490566,28.4056604 L176.490566,27.3301887 L176.433962,27.3301887 Z" id="Shape"></path>
            </g>
        </g>
    </g>
</svg>